<svg width="1000" height="1000" viewBox="0 0 1000 1000" fill="none" xmlns="http://www.w3.org/2000/svg">
<path d="M420.362 212.63C446.213 186.877 488.047 186.957 513.8 212.808L753.945 453.867C779.698 479.718 779.619 521.552 753.768 547.305L683.556 617.25L396.781 329.383C371.028 303.532 371.107 261.698 396.958 235.945L420.362 212.63Z" fill="white"/>
<path d="M396.868 764.792C371.066 738.99 371.066 697.156 396.868 671.354L684.19 384.033L754.269 454.111C780.071 479.913 780.071 521.747 754.269 547.549L513.666 788.152C487.864 813.954 446.03 813.954 420.228 788.152L396.868 764.792Z" fill="#18CB96"/>
<mask id="path-4-outside-1_209_9" maskUnits="userSpaceOnUse" x="197.605" y="158.942" width="458.513" height="459.31" fill="black">
<rect fill="white" x="197.605" y="158.942" width="458.513" height="459.31"/>
<path d="M268.399 212.63C294.251 186.877 336.084 186.957 361.837 212.808L601.982 453.867C627.736 479.718 627.656 521.552 601.805 547.305L531.593 617.25L244.818 329.383C219.065 303.532 219.144 261.698 244.996 235.945L268.399 212.63Z"/>
</mask>
<path d="M268.399 212.63C294.251 186.877 336.084 186.957 361.837 212.808L601.982 453.867C627.736 479.718 627.656 521.552 601.805 547.305L531.593 617.25L244.818 329.383C219.065 303.532 219.144 261.698 244.996 235.945L268.399 212.63Z" fill="white"/>
<path d="M268.399 212.63C298.128 183.014 346.237 183.105 375.853 212.834L602.009 439.851C631.625 469.58 631.534 517.689 601.805 547.305L601.805 547.305C623.778 525.415 620.714 486.713 594.961 460.862L354.816 219.802C329.063 193.951 290.373 190.74 268.399 212.63L268.399 212.63ZM531.593 617.25L198.188 282.575L531.593 617.25ZM198.188 282.575L315.207 166L198.188 282.575ZM648.613 500.675L531.593 617.25L648.613 500.675Z" fill="black" mask="url(#path-4-outside-1_209_9)"/>
<mask id="path-6-inside-2_209_9" fill="white">
<path d="M244.905 764.792C219.103 738.99 219.103 697.156 244.906 671.354L532.227 384.033L602.306 454.111C628.108 479.913 628.108 521.747 602.306 547.549L361.703 788.152C335.901 813.954 294.067 813.954 268.265 788.152L244.905 764.792Z"/>
</mask>
<path d="M244.905 764.792C219.103 738.99 219.103 697.156 244.906 671.354L532.227 384.033L602.306 454.111C628.108 479.913 628.108 521.747 602.306 547.549L361.703 788.152C335.901 813.954 294.067 813.954 268.265 788.152L244.905 764.792Z" fill="#18CB96"/>
<path d="M198.187 718.073L532.227 384.033L198.187 718.073ZM602.306 454.111C631.978 483.784 631.978 531.892 602.306 561.565L375.719 788.152C346.046 817.824 297.938 817.824 268.265 788.152L268.265 788.152C290.197 810.084 328.893 806.946 354.695 781.144L595.298 540.541C621.1 514.739 624.238 476.043 602.306 454.111L602.306 454.111ZM314.984 834.871L198.187 718.073L314.984 834.871ZM532.227 384.033L649.025 500.83L532.227 384.033Z" fill="black" mask="url(#path-6-inside-2_209_9)"/>
</svg>
