<svg width="821" height="267" viewBox="0 0 821 267" fill="none" xmlns="http://www.w3.org/2000/svg">
<g clip-path="url(#clip0_212_9)">
<path d="M159.352 35.8268V82.1071H109.916V222H51.5395V82.1071H2.62957V35.8268H159.352ZM233.561 101.04C239.521 92.4501 246.796 85.6132 255.386 80.5294C263.976 75.2702 272.917 72.6407 282.208 72.6407V134.961H265.642C254.597 134.961 246.446 136.89 241.187 140.746C236.103 144.603 233.561 151.44 233.561 161.257V222H175.185V73.6925H233.561V101.04ZM327.383 61.8595C317.215 61.8595 309.064 59.1422 302.928 53.7078C296.792 48.2734 293.725 41.4365 293.725 33.1972C293.725 24.7826 296.792 17.8581 302.928 12.4236C309.064 6.81388 317.215 4.00901 327.383 4.00901C337.375 4.00901 345.439 6.81388 351.575 12.4236C357.711 17.8581 360.778 24.7826 360.778 33.1972C360.778 41.4365 357.711 48.2734 351.575 53.7078C345.439 59.1422 337.375 61.8595 327.383 61.8595ZM356.308 73.6925V222H297.932V73.6925H356.308ZM468.135 63.1742C464.979 62.8236 462.788 62.6483 461.561 62.6483C457.178 62.6483 453.847 63.5249 451.568 65.2779C449.289 66.8556 447.712 69.6605 446.835 73.6925H468.135V122.339H446.309V222H387.933V122.339H372.155V73.6925H387.933C388.283 54.409 394.331 39.5082 406.077 28.9899C417.998 18.2963 434.651 12.9495 456.039 12.9495C458.493 12.9495 462.525 13.1248 468.135 13.4755V63.1742ZM576.148 172.301V222H554.06C513.389 222 493.054 201.752 493.054 161.257V122.339H474.647V73.6925H493.054V37.9304H551.43V73.6925H575.622V122.339H551.43V162.309C551.43 165.815 552.219 168.357 553.797 169.935C555.55 171.512 558.355 172.301 562.211 172.301H576.148Z" fill="white"/>
<path d="M706.254 43.1152C714.079 35.3196 726.742 35.3437 734.538 43.169L807.232 116.139C815.027 123.965 815.003 136.628 807.178 144.423L785.924 165.596L699.116 78.4571C691.32 70.6318 691.344 57.9685 699.169 50.1729L706.254 43.1152Z" fill="white"/>
<path d="M699.142 210.258C691.332 202.448 691.332 189.785 699.142 181.974L786.116 94.9999L807.329 116.213C815.14 124.024 815.14 136.687 807.329 144.497L734.497 217.329C726.687 225.14 714.024 225.14 706.213 217.329L699.142 210.258Z" fill="#18CB96"/>
<mask id="path-4-outside-1_212_9" maskUnits="userSpaceOnUse" x="639" y="26.8827" width="138.472" height="138.714" fill="black">
<rect fill="white" x="639" y="26.8827" width="138.472" height="138.714"/>
<path d="M660.254 43.1152C668.079 35.3196 680.742 35.3437 688.538 43.169L761.232 116.139C769.027 123.965 769.003 136.628 761.178 144.423L739.924 165.596L653.116 78.4571C645.32 70.6318 645.344 57.9685 653.169 50.1729L660.254 43.1152Z"/>
</mask>
<path d="M660.254 43.1152C668.079 35.3196 680.742 35.3437 688.538 43.169L761.232 116.139C769.027 123.965 769.003 136.628 761.178 144.423L739.924 165.596L653.116 78.4571C645.32 70.6318 645.344 57.9685 653.169 50.1729L660.254 43.1152Z" fill="white"/>
<path d="M660.254 43.1152C669.253 34.1503 683.816 34.1779 692.781 43.177L761.24 111.897C770.205 120.896 770.177 135.458 761.178 144.423C767.829 137.797 766.902 126.082 759.106 118.256L686.413 45.2863C678.617 37.461 666.905 36.489 660.254 43.1152ZM739.924 165.596L639 64.2881L739.924 165.596ZM639 64.2881L674.423 29L639 64.2881ZM775.347 130.308L739.924 165.596L775.347 130.308Z" fill="black" mask="url(#path-4-outside-1_212_9)"/>
<mask id="path-6-inside-2_212_9" fill="white">
<path d="M653.142 210.258C645.332 202.448 645.332 189.785 653.142 181.974L740.116 94.9999L761.329 116.213C769.14 124.024 769.14 136.687 761.329 144.497L688.497 217.329C680.687 225.14 668.024 225.14 660.213 217.329L653.142 210.258Z"/>
</mask>
<path d="M653.142 210.258C645.332 202.448 645.332 189.785 653.142 181.974L740.116 94.9999L761.329 116.213C769.14 124.024 769.14 136.687 761.329 144.497L688.497 217.329C680.687 225.14 668.024 225.14 660.213 217.329L653.142 210.258Z" fill="#18CB96"/>
<path d="M639 196.116L740.116 94.9999L639 196.116ZM761.329 116.213C770.312 125.195 770.312 139.758 761.329 148.74L692.74 217.329C683.758 226.311 669.195 226.311 660.213 217.329C666.852 223.968 678.566 223.019 686.376 215.208L759.208 142.376C767.019 134.566 767.968 122.852 761.329 116.213ZM674.355 231.472L639 196.116L674.355 231.472ZM740.116 94.9999L775.472 130.355L740.116 94.9999Z" fill="black" mask="url(#path-6-inside-2_212_9)"/>
</g>
<defs>
<clipPath id="clip0_212_9">
<rect width="821" height="267" fill="white"/>
</clipPath>
</defs>
</svg>
