<svg width="1000" height="1000" viewBox="0 0 1000 1000" fill="none" xmlns="http://www.w3.org/2000/svg">
<path d="M248.352 405.827V452.107H198.916V592H140.539V452.107H91.6296V405.827H248.352ZM322.561 471.04C328.521 462.45 335.796 455.613 344.386 450.529C352.976 445.27 361.917 442.641 371.208 442.641V504.961H354.642C343.597 504.961 335.446 506.89 330.187 510.746C325.103 514.603 322.561 521.44 322.561 531.257V592H264.185V443.693H322.561V471.04ZM416.383 431.859C406.215 431.859 398.064 429.142 391.928 423.708C385.792 418.273 382.725 411.437 382.725 403.197C382.725 394.783 385.792 387.858 391.928 382.424C398.064 376.814 406.215 374.009 416.383 374.009C426.375 374.009 434.439 376.814 440.575 382.424C446.711 387.858 449.778 394.783 449.778 403.197C449.778 411.437 446.711 418.273 440.575 423.708C434.439 429.142 426.375 431.859 416.383 431.859ZM445.308 443.693V592H386.932V443.693H445.308ZM557.135 433.174C553.979 432.824 551.788 432.648 550.561 432.648C546.178 432.648 542.847 433.525 540.568 435.278C538.289 436.856 536.712 439.661 535.835 443.693H557.135V492.339H535.309V592H476.933V492.339H461.155V443.693H476.933C477.283 424.409 483.331 409.508 495.077 398.99C506.998 388.296 523.651 382.95 545.039 382.95C547.493 382.95 551.525 383.125 557.135 383.475V433.174ZM665.148 542.301V592H643.06C602.389 592 582.054 571.752 582.054 531.257V492.339H563.647V443.693H582.054V407.93H640.43V443.693H664.622V492.339H640.43V532.309C640.43 535.815 641.219 538.357 642.797 539.935C644.55 541.512 647.355 542.301 651.211 542.301H665.148Z" fill="white"/>
<path d="M795.254 413.115C803.079 405.32 815.742 405.344 823.538 413.169L896.232 486.139C904.027 493.965 904.003 506.628 896.178 514.423L874.924 535.596L788.116 448.457C780.32 440.632 780.344 427.968 788.169 420.173L795.254 413.115Z" fill="white"/>
<path d="M788.142 580.258C780.332 572.448 780.332 559.785 788.142 551.974L875.116 465L896.329 486.213C904.14 494.024 904.14 506.687 896.329 514.497L823.497 587.329C815.687 595.14 803.024 595.14 795.213 587.329L788.142 580.258Z" fill="#18CB96"/>
<mask id="path-4-outside-1_211_2" maskUnits="userSpaceOnUse" x="728" y="396.883" width="138.472" height="138.714" fill="black">
<rect fill="white" x="728" y="396.883" width="138.472" height="138.714"/>
<path d="M749.254 413.115C757.079 405.32 769.742 405.344 777.538 413.169L850.232 486.139C858.027 493.965 858.003 506.628 850.178 514.423L828.924 535.596L742.116 448.457C734.32 440.632 734.344 427.968 742.169 420.173L749.254 413.115Z"/>
</mask>
<path d="M749.254 413.115C757.079 405.32 769.742 405.344 777.538 413.169L850.232 486.139C858.027 493.965 858.003 506.628 850.178 514.423L828.924 535.596L742.116 448.457C734.32 440.632 734.344 427.968 742.169 420.173L749.254 413.115Z" fill="white"/>
<path d="M749.254 413.115C758.253 404.15 772.816 404.178 781.781 413.177L850.24 481.897C859.205 490.896 859.177 505.458 850.178 514.423C856.829 507.797 855.902 496.082 848.106 488.256L775.413 415.286C767.617 407.461 755.905 406.489 749.254 413.115ZM828.924 535.596L728 434.288L828.924 535.596ZM728 434.288L763.423 399L728 434.288ZM864.347 500.308L828.924 535.596L864.347 500.308Z" fill="black" mask="url(#path-4-outside-1_211_2)"/>
<mask id="path-6-inside-2_211_2" fill="white">
<path d="M742.142 580.258C734.332 572.448 734.332 559.785 742.142 551.974L829.116 465L850.329 486.213C858.14 494.024 858.14 506.687 850.329 514.497L777.497 587.329C769.687 595.14 757.024 595.14 749.213 587.329L742.142 580.258Z"/>
</mask>
<path d="M742.142 580.258C734.332 572.448 734.332 559.785 742.142 551.974L829.116 465L850.329 486.213C858.14 494.024 858.14 506.687 850.329 514.497L777.497 587.329C769.687 595.14 757.024 595.14 749.213 587.329L742.142 580.258Z" fill="#18CB96"/>
<path d="M728 566.116L829.116 465L728 566.116ZM850.329 486.213C859.312 495.195 859.312 509.758 850.329 518.74L781.74 587.329C772.758 596.311 758.195 596.311 749.213 587.329C755.852 593.968 767.566 593.019 775.376 585.208L848.208 512.376C856.019 504.566 856.968 492.852 850.329 486.213ZM763.355 601.472L728 566.116L763.355 601.472ZM829.116 465L864.472 500.355L829.116 465Z" fill="black" mask="url(#path-6-inside-2_211_2)"/>
</svg>
